<?xml version="1.0" standalone="no"?>
<!DOCTYPE svg PUBLIC "-//W3C//DTD SVG 20010904//EN"
 "http://www.w3.org/TR/2001/REC-SVG-20010904/DTD/svg10.dtd">
<svg version="1.0" xmlns="http://www.w3.org/2000/svg"
 width="231.000000pt" height="231.000000pt" viewBox="0 0 231.000000 231.000000"
 preserveAspectRatio="xMidYMid meet">
<metadata>
Created by potrace 1.14, written by Peter Selinger 2001-2017
</metadata>
<g transform="translate(0.000000,231.000000) scale(0.100000,-0.100000)"
fill="#000000" stroke="none">
<path d="M951 2044 c-83 -22 -164 -70 -229 -136 -105 -104 -156 -230 -155
-383 1 -248 173 -458 418 -510 88 -18 122 -18 210 0 184 39 327 163 391 340
104 287 -66 613 -361 690 -73 19 -202 18 -274 -1z m291 -166 c73 -34 152 -112
186 -186 24 -50 27 -69 27 -157 0 -88 -3 -107 -27 -157 -34 -74 -107 -146
-183 -183 -54 -26 -70 -29 -155 -29 -81 0 -103 4 -150 26 -81 37 -144 98 -182
176 -31 62 -33 74 -33 167 0 87 3 107 26 155 46 98 121 166 222 202 75 27 193
21 269 -14z"/>
<path d="M724 906 c-319 -126 -499 -266 -532 -412 -12 -55 6 -101 45 -110 15
-4 407 -8 870 -8 l842 -1 23 23 c69 69 -23 234 -194 348 -123 82 -403 204
-468 204 -21 0 -53 -21 -124 -81 l-96 -81 -96 81 c-76 65 -102 81 -127 81 -18
0 -82 -20 -143 -44z m151 -135 c3 -6 46 -44 96 -85 118 -100 120 -100 250 9
55 47 106 85 113 85 37 0 287 -120 376 -180 112 -76 165 -70 -621 -70 l-703 0
27 28 c40 42 171 118 299 173 112 48 151 58 163 40z"/>
</g>
</svg>
